# xmcd CD database file
#
# Track frame offsets:
#	150
#	18455
#	36476
#	52746
#	66879
#	85183
#	98832
#	106663
#	123396
#	142735
#	155841
#	173324
#	188798
#	207449
#	225403
#
# Disc length: 3215 seconds
#
# Revision: 3
# Processed by: cddbd v1.5.2PL0 Copyright (c) Steve Scherf et al.
# Submitted via: CDex 1.79
#
DISCID=b90c8d0f
DTITLE=Hal Ketchum - The King Of Love
DYEAR=2002
DGENRE=Country
TTITLE0=Everytime I Look At You
TTITLE1=Run Loretta Run
TTITLE2=As Long As You Love Me
TTITLE3=The King Of Love
TTITLE4=On Her Own Time
TTITLE5=God Makes Stars
TTITLE6=The Ruby and The Rose
TTITLE7=Taking My Time
TTITLE8=The Way She Loves Me
TTITLE9=The Carpenter's Way
TTITLE10=Evangeline
TTITLE11=Prisoner Of Love
TTITLE12=Too Much Of Nothing
TTITLE13=The Skies Over Dublin
TTITLE14=The Angel Song
EXTD=Released by Curb Records 2002. Graeme Lynch YEAR: 2002
EXTT0=
EXTT1=
EXTT2=
EXTT3=
EXTT4=
EXTT5=
EXTT6=
EXTT7=
EXTT8=
EXTT9=
EXTT10=
EXTT11=
EXTT12=
EXTT13=
EXTT14=
PLAYORDER=
